<?xml version="1.0" encoding="UTF-8"?>
<svg width="151px" height="33px" viewBox="0 0 151 33" version="1.1" xmlns="http://www.w3.org/2000/svg" xmlns:xlink="http://www.w3.org/1999/xlink">
    <!-- Generator: Sketch 61 (89581) - https://sketch.com -->
    <title>Untitled 2</title>
    <desc>Created with Sketch.</desc>
    <g id="Page-1" stroke="none" stroke-width="1" fill="none" fill-rule="evenodd">
        <g id="Group-3">
            <g id="Group-2" transform="translate(0.000000, 2.000000)">
                <path d="M15.7241379,0 L15.7241379,11.2 C15.7241379,20.4783838 8.80770924,28 0.275862069,28 L0.275862069,16.8 C0.275862069,7.5216162 7.19229076,0 15.7241379,0 Z" id="Rectangle" fill="#15E0FD"></path>
                <path d="M22,7.99067594 L18.6773475,18.2353999 C15.9247721,26.7224072 7.5626388,31.0983421 0,28.0093241 L3.32265245,17.7646001 C6.07522787,9.2775928 14.4373612,4.90165792 22,7.99067594 Z" id="Rectangle" fill="#009DDC"></path>
                <path d="M23,17.5403687 L19.5263179,23.1284 C16.6486254,27.7576767 7.90639511,30.1445502 0,28.4596313 L3.47368211,22.8716 C6.35137459,18.2423233 15.0936049,15.8554498 23,17.5403687 Z" id="Rectangle" fill="#2E5BFF"></path>
            </g>
            <g id="Group" transform="translate(27.863833, 0.000000)" fill="#2E384D" fill-rule="nonzero">
                <g id="Base/Logo">
                    <g id="Logo-Text-">
                        <path d="M4.921,18 L4.921,13.421 L6.479,13.421 L8.892,18 L12.597,18 L9.956,13.25 C9.633,12.68 9.443,12.433 9.443,12.433 L9.443,12.395 C10.792,11.711 11.476,10.134 11.476,8.69 C11.476,6.714 10.507,5.327 8.968,4.738 C8.379,4.51 7.714,4.415 6.327,4.415 L1.596,4.415 L1.596,18 L4.921,18 Z M6.365,10.571 L4.921,10.571 L4.921,7.265 L6.042,7.265 C7.714,7.265 8.094,7.873 8.094,8.899 C8.094,9.982 7.429,10.571 6.365,10.571 Z M17.404,18 L17.404,13.801 L19.722,13.801 C22.363,13.801 24.149,11.825 24.149,9.089 C24.149,6.353 22.363,4.415 19.722,4.415 L14.079,4.415 L14.079,18 L17.404,18 Z M19.038,10.951 L17.404,10.951 L17.404,7.265 L19.095,7.265 C20.197,7.265 20.767,8.006 20.767,9.089 C20.767,10.172 20.197,10.951 19.038,10.951 Z M27.094,18 L27.911,15.15 L32.148,15.15 L32.984,18 L36.404,18 L31.787,4.415 L28.291,4.415 L23.674,18 L27.094,18 Z M31.369,12.49 L28.69,12.49 L29.469,9.849 C29.716,8.994 30.02,7.512 30.02,7.512 L30.058,7.512 C30.058,7.512 30.3308421,8.84210526 30.5695789,9.70909695 L31.369,12.49 Z M50.198,18 L50.198,15.15 L44.65,15.15 L44.65,4.415 L41.325,4.415 L41.325,18 L50.198,18 Z M54.416,6.98 L54.416,4.415 L51.205,4.415 L51.205,6.98 L54.416,6.98 Z M54.454,18 L54.454,8.215 L51.167,8.215 L51.167,18 L54.454,18 Z M60.306,18 L60.306,10.951 L62.111,10.951 L62.111,8.386 L60.306,8.386 L60.306,8.082 C60.306,7.246 61.313,7.132 61.959,7.132 C62.263,7.132 62.491,7.17 62.491,7.17 L62.491,4.396 C62.491,4.396 62.092,4.339 61.503,4.339 C59.926,4.339 57.019,4.776 57.019,7.987 L57.019,8.386 L55.822,8.386 L55.822,10.951 L57.019,10.951 L57.019,18 L60.306,18 Z M67.906,18.228 C70.509,18.228 72.086,16.803 72.086,16.803 L70.87,14.504 L70.838852,14.5270113 C70.6341488,14.6754711 69.4501818,15.492 68.172,15.492 C67.127,15.492 66.139,14.941 65.892,13.744 L72.067,13.744 C72.067,13.744 72.143,13.041 72.143,12.718 C72.143,10.001 70.509,7.987 67.621,7.987 C64.467,7.987 62.529,10.229 62.529,13.098 C62.529,15.701 64.41,18.228 67.906,18.228 Z M68.837,11.863 L65.968,11.863 C66.139,11.141 66.595,10.457 67.545,10.457 C68.324,10.457 68.837,11.122 68.837,11.863 Z M78.185,18.228 C80.921,18.228 82.384,16.613 82.384,16.613 L81.187,14.314 C81.187,14.314 79.876,15.492 78.508,15.492 C76.855,15.492 76.057,14.219 76.057,13.06 C76.057,11.901 76.836,10.723 78.394,10.723 C79.743,10.723 80.693,11.673 80.693,11.673 L82.08,9.469 C82.08,9.469 80.845,7.987 78.185,7.987 C74.67,7.987 72.732,10.476 72.732,13.098 C72.732,15.796 74.689,18.228 78.185,18.228 Z M84.531,21.99 C86.089,21.99 87.799,21.23 88.616,19.045 L92.625,8.215 L89.034,8.215 L87.799,12.775 C87.666,13.307 87.476,14.238 87.476,14.238 L87.438,14.238 C87.438,14.238 87.248,13.25 87.077,12.718 L85.633,8.215 L81.909,8.215 L86.07,17.81 L85.88,18.266 C85.538,19.102 84.835,19.254 84.303,19.254 C83.828,19.254 83.296,18.893 83.296,18.893 L82.251,21.306 C82.251,21.306 83.239,21.99 84.531,21.99 Z M98.078,18.228 C100.814,18.228 102.277,16.613 102.277,16.613 L101.08,14.314 C101.08,14.314 99.769,15.492 98.401,15.492 C96.748,15.492 95.95,14.219 95.95,13.06 C95.95,11.901 96.729,10.723 98.287,10.723 C99.636,10.723 100.586,11.673 100.586,11.673 L101.973,9.469 C101.973,9.469 100.738,7.987 98.078,7.987 C94.563,7.987 92.625,10.476 92.625,13.098 C92.625,15.796 94.582,18.228 98.078,18.228 Z M106.818,18.095 C107.35,18.095 107.806,18.038 107.806,18.038 L107.806,15.188 C107.806,15.188 107.616,15.207 107.407,15.207 C106.666,15.207 106.495,14.884 106.495,13.953 L106.495,4.415 L103.208,4.415 L103.208,14.39 C103.208,17.677 105.07,18.095 106.818,18.095 Z M113.677,18.228 C116.28,18.228 117.857,16.803 117.857,16.803 L116.641,14.504 L116.609852,14.5270113 C116.405149,14.6754711 115.221182,15.492 113.943,15.492 C112.898,15.492 111.91,14.941 111.663,13.744 L117.838,13.744 C117.838,13.744 117.914,13.041 117.914,12.718 C117.914,10.001 116.28,7.987 113.392,7.987 C110.238,7.987 108.3,10.229 108.3,13.098 C108.3,15.701 110.181,18.228 113.677,18.228 Z M114.608,11.863 L111.739,11.863 C111.91,11.141 112.366,10.457 113.316,10.457 C114.095,10.457 114.608,11.122 114.608,11.863 Z" id="RPALifecycle"></path>
                    </g>
                </g>
                <path d="M2.49,30 L2.88,25.08 C2.91,24.7 2.9,24.08 2.9,24.08 L2.92,24.08 C2.92,24.08 3.14,24.73 3.3,25.08 L4.95,28.69 L5.6,28.69 L7.25,25.08 C7.41,24.72 7.62,24.1 7.62,24.1 L7.64,24.1 C7.64,24.1 7.63,24.7 7.66,25.08 L8.05,30 L8.74,30 L8.18,22.97 L7.47,22.97 L5.63,27.1 C5.47,27.46 5.28,27.96 5.28,27.96 L5.26,27.96 C5.26,27.96 5.08,27.46 4.92,27.1 L3.08,22.97 L2.36,22.97 L1.8,30 L2.49,30 Z M15.616667,30 L16.416667,27.76 L19.246667,27.76 L20.056667,30 L20.786667,30 L18.206667,22.97 L17.466667,22.97 L14.886667,30 L15.616667,30 Z M19.036667,27.16 L16.616667,27.16 L17.556667,24.61 C17.676667,24.28 17.826667,23.7 17.826667,23.7 L17.846667,23.7 C17.846667,23.7 17.996667,24.28 18.116667,24.61 L19.036667,27.16 Z M27.843334,30 L27.843334,24.94 C27.843334,24.57 27.783334,23.99 27.783334,23.99 L27.803334,23.99 C27.803334,23.99 28.143334,24.59 28.383334,24.94 L31.973334,30 L32.643334,30 L32.643334,22.97 L31.953334,22.97 L31.953334,28.03 C31.953334,28.4 32.013334,28.98 32.013334,28.98 L31.993334,28.98 C31.993334,28.98 31.653334,28.38 31.413334,28.03 L27.823334,22.97 L27.153334,22.97 L27.153334,30 L27.843334,30 Z M39.740001,30 L40.540001,27.76 L43.370001,27.76 L44.180001,30 L44.910001,30 L42.330001,22.97 L41.590001,22.97 L39.010001,30 L39.740001,30 Z M43.160001,27.16 L40.740001,27.16 L41.680001,24.61 C41.800001,24.28 41.950001,23.7 41.950001,23.7 L41.970001,23.7 C41.970001,23.7 42.120001,24.28 42.240001,24.61 L43.160001,27.16 Z M54.196668,30.12 C55.676668,30.12 56.486668,29.17 56.486668,29.17 L56.506668,29.17 C56.506668,29.17 56.496668,29.32 56.496668,29.47 L56.496668,30 L57.136668,30 L57.136668,26.64 L55.276668,26.64 L55.276668,27.26 L56.476668,27.26 L56.476668,28.45 C56.476668,28.45 55.636668,29.48 54.266668,29.48 C52.666668,29.48 51.476668,28.2 51.476668,26.47 C51.476668,24.8 52.626668,23.49 54.326668,23.49 C55.606668,23.49 56.426668,24.19 56.426668,24.19 L56.796668,23.67 C56.796668,23.67 55.926668,22.85 54.296668,22.85 C52.276668,22.85 50.756668,24.45 50.756668,26.48 C50.756668,28.57 52.276668,30.12 54.196668,30.12 Z M68.163335,30 L68.163335,29.38 L64.713335,29.38 L64.713335,26.77 L67.383335,26.77 L67.383335,26.15 L64.713335,26.15 L64.713335,23.59 L67.983335,23.59 L67.983335,22.97 L64.023335,22.97 L64.023335,30 L68.163335,30 Z M75.420002,30 L75.810002,25.08 C75.840002,24.7 75.830002,24.08 75.830002,24.08 L75.850002,24.08 C75.850002,24.08 76.070002,24.73 76.230002,25.08 L77.880002,28.69 L78.530002,28.69 L80.180002,25.08 C80.340002,24.72 80.550002,24.1 80.550002,24.1 L80.570002,24.1 C80.570002,24.1 80.560002,24.7 80.590002,25.08 L80.980002,30 L81.670002,30 L81.110002,22.97 L80.400002,22.97 L78.560002,27.1 C78.400002,27.46 78.210002,27.96 78.210002,27.96 L78.190002,27.96 C78.190002,27.96 78.010002,27.46 77.850002,27.1 L76.010002,22.97 L75.290002,22.97 L74.730002,30 L75.420002,30 Z M92.846669,30 L92.846669,29.38 L89.396669,29.38 L89.396669,26.77 L92.066669,26.77 L92.066669,26.15 L89.396669,26.15 L89.396669,23.59 L92.666669,23.59 L92.666669,22.97 L88.706669,22.97 L88.706669,30 L92.846669,30 Z M100.323336,30 L100.323336,24.94 C100.323336,24.57 100.263336,23.99 100.263336,23.99 L100.283336,23.99 C100.283336,23.99 100.623336,24.59 100.863336,24.94 L104.453336,30 L105.123336,30 L105.123336,22.97 L104.433336,22.97 L104.433336,28.03 C104.433336,28.4 104.493336,28.98 104.493336,28.98 L104.473336,28.98 C104.473336,28.98 104.133336,28.38 103.893336,28.03 L100.303336,22.97 L99.633336,22.97 L99.633336,30 L100.323336,30 Z M114.650003,30 L114.650003,23.59 L117.170003,23.59 L117.170003,22.97 L111.430003,22.97 L111.430003,23.59 L113.960003,23.59 L113.960003,30 L114.650003,30 Z" id="MANAGEMENT"></path>
            </g>
        </g>
    </g>
</svg>