<?xml version="1.0" encoding="UTF-8"?>
<svg width="27px" height="28px" viewBox="0 0 27 28" version="1.1" xmlns="http://www.w3.org/2000/svg" xmlns:xlink="http://www.w3.org/1999/xlink">
    <!-- Generator: Sketch 61 (89581) - https://sketch.com -->
    <title>Untitled</title>
    <desc>Created with Sketch.</desc>
    <defs>
        <polygon id="path-1" points="0 0.81876816 11.8186052 0.81876816 11.8186052 14.9993 0 14.9993"></polygon>
        <polygon id="path-3" points="0.196408333 0.8184 23.8333333 0.8184 23.8333333 22.6364 0.196408333 22.6364"></polygon>
    </defs>
    <g id="Page-1" stroke="none" stroke-width="1" fill="none" fill-rule="evenodd">
        <g id="Group-7">
            <g id="Group-3" transform="translate(0.000000, 12.181800)">
                <mask id="mask-2" fill="white">
                    <use xlink:href="#path-1"></use>
                </mask>
                <g id="Clip-2"></g>
                <path d="M11.641175,0.9733 C11.4093417,0.7643 11.0355917,0.7673 10.805925,0.9823 C5.768425,5.7243 2.39275833,9.4123 0.051675,14.2313 C-0.081575,14.5053 0.0505916667,14.8283 0.348508333,14.9523 C0.427591667,14.9853 0.511008333,14.9993 0.591175,14.9993 C0.815425,14.9993 1.03209167,14.8793 1.130675,14.6773 C3.40025833,10.0063 6.70550833,6.3993 11.6498417,1.7443 C11.878425,1.5313 11.8740917,1.1833 11.641175,0.9733" id="Fill-1" fill="#FFFFFF" mask="url(#mask-2)"></path>
            </g>
            <g id="Group-6" transform="translate(2.166667, 0.181800)">
                <mask id="mask-4" fill="white">
                    <use xlink:href="#path-3"></use>
                </mask>
                <g id="Clip-5"></g>
                <path d="M21.5207417,7.7214 L15.8581583,10.7074 C15.626325,10.8314 15.512575,11.0824 15.580825,11.3224 C15.649075,11.5614 15.883075,11.7274 16.1517417,11.7274 L19.549075,11.7274 C15.7054083,17.6504 8.87174167,21.3504 1.38699167,21.5374 C1.69899167,10.8484 11.0611583,2.2054 22.643075,1.9164 C22.5824083,3.8694 22.2054083,5.8194 21.5207417,7.7214 M23.2421583,0.8184 C10.5357417,0.8184 0.196408333,10.3614 0.196408333,22.0904 C0.196408333,22.3924 0.461825,22.6364 0.787908333,22.6364 C9.275825,22.6364 17.053075,18.3454 21.0874083,11.4404 C21.1849083,11.2714 21.180575,11.0664 21.073325,10.9034 C20.966075,10.7384 20.7732417,10.6364 20.5652417,10.6364 L18.3769083,10.6364 L22.301825,8.5664 C22.4264083,8.5004 22.5217417,8.3944 22.5672417,8.2694 C23.4079083,6.0124 23.8336583,3.6884 23.8336583,1.3644 C23.8336583,1.0624 23.5682417,0.8184 23.2421583,0.8184" id="Fill-4" fill="#FFFFFF" mask="url(#mask-4)"></path>
            </g>
        </g>
    </g>
</svg>