<?xml version="1.0" encoding="UTF-8"?>
<svg width="24px" height="24px" viewBox="0 0 24 24" version="1.1" xmlns="http://www.w3.org/2000/svg" xmlns:xlink="http://www.w3.org/1999/xlink">
    <!-- Generator: Sketch 61 (89581) - https://sketch.com -->
    <title>Slice 1</title>
    <desc>Created with Sketch.</desc>
    <defs>
        <polygon id="path-1" points="0 24 24 24 24 0 0 0"></polygon>
    </defs>
    <g id="Page-1" stroke="none" stroke-width="1" fill="none" fill-rule="evenodd">
        <g id="Group-15">
            <path d="M23.5,23.0005 L0.5,23.0005 C0.224,23.0005 0,23.2245 0,23.4995 C0,23.7755 0.224,23.9995 0.5,23.9995 L23.5,23.9995 C23.776,23.9995 24,23.7755 24,23.4995 C24,23.2245 23.776,23.0005 23.5,23.0005" id="Fill-1" fill="#BFC5D2"></path>
            <mask id="mask-2" fill="white">
                <use xlink:href="#path-1"></use>
            </mask>
            <g id="Clip-4"></g>
            <path d="M2,23 L4,23 L4,17.999 L2,17.999 L2,23 Z M4.5,17 L1.5,17 C1.224,17 1,17.224 1,17.5 L1,23.5 C1,23.776 1.224,23.999 1.5,23.999 L4.5,23.999 C4.776,23.999 5,23.776 5,23.499 L5,17.499 C5,17.224 4.776,17 4.5,17 L4.5,17 Z" id="Fill-3" fill="#BFC5D2" mask="url(#mask-2)"></path>
            <path d="M8,23 L10,23 L10,12.999 L8,12.999 L8,23 Z M10.5,12 L7.5,12 C7.224,12 7,12.224 7,12.5 L7,23.5 C7,23.776 7.224,24 7.5,24 L10.5,24 C10.776,24 11,23.776 11,23.5 L11,12.5 C11,12.224 10.776,12 10.5,12 L10.5,12 Z" id="Fill-5" fill="#BFC5D2" mask="url(#mask-2)"></path>
            <path d="M14,23 L16,23 L16,15 L14,15 L14,23 Z M16.5,14 L13.5,14 C13.224,14 13,14.224 13,14.5 L13,23.5 C13,23.776 13.224,24 13.5,24 L16.5,24 C16.776,24 17,23.776 17,23.5 L17,14.5 C17,14.224 16.776,14 16.5,14 L16.5,14 Z" id="Fill-6" fill="#BFC5D2" mask="url(#mask-2)"></path>
            <path d="M20,23 L22,23 L22,9 L20,9 L20,23 Z M22.5,8 L19.5,8 C19.224,8 19,8.224 19,8.5 L19,23.5 C19,23.776 19.224,24 19.5,24 L22.5,24 C22.776,24 23,23.776 23,23.5 L23,8.5 C23,8.224 22.776,8 22.5,8 L22.5,8 Z" id="Fill-7" fill="#BFC5D2" mask="url(#mask-2)"></path>
            <path d="M3,12.0005 C2.448,12.0005 2,11.5515 2,11.0005 C2,10.4485 2.448,10.0005 3,10.0005 C3.552,10.0005 4,10.4485 4,11.0005 C4,11.5515 3.552,12.0005 3,12.0005 M3,9.0005 C1.897,9.0005 1,9.8965 1,11.0005 C1,12.1035 1.897,13.0005 3,13.0005 C4.103,13.0005 5,12.1035 5,11.0005 C5,9.8965 4.103,9.0005 3,9.0005" id="Fill-8" fill="#BFC5D2" mask="url(#mask-2)"></path>
            <path d="M9,6.9995 C8.448,6.9995 8,6.5515 8,6.0005 C8,5.4485 8.448,5.0005 9,5.0005 C9.552,5.0005 10,5.4485 10,6.0005 C10,6.5515 9.552,6.9995 9,6.9995 M9,4.0005 C7.897,4.0005 7,4.8965 7,6.0005 C7,7.1035 7.897,8.0005 9,8.0005 C10.103,8.0005 11,7.1035 11,6.0005 C11,4.8965 10.103,4.0005 9,4.0005" id="Fill-9" fill="#BFC5D2" mask="url(#mask-2)"></path>
            <path d="M15,9.0005 C14.448,9.0005 14,8.5515 14,8.0005 C14,7.4485 14.448,7.0005 15,7.0005 C15.552,7.0005 16,7.4485 16,8.0005 C16,8.5515 15.552,9.0005 15,9.0005 M15,6.0005 C13.897,6.0005 13,6.8965 13,8.0005 C13,9.1035 13.897,10.0005 15,10.0005 C16.103,10.0005 17,9.1035 17,8.0005 C17,6.8965 16.103,6.0005 15,6.0005" id="Fill-10" fill="#BFC5D2" mask="url(#mask-2)"></path>
            <path d="M21,3.0005 C20.448,3.0005 20,2.5515 20,2.0005 C20,1.4485 20.448,1.0005 21,1.0005 C21.552,1.0005 22,1.4485 22,2.0005 C22,2.5515 21.552,3.0005 21,3.0005 M21,0.0005 C19.897,0.0005 19,0.8965 19,2.0005 C19,3.1035 19.897,4.0005 21,4.0005 C22.103,4.0005 23,3.1035 23,2.0005 C23,0.8965 22.103,0.0005 21,0.0005" id="Fill-11" fill="#BFC5D2" mask="url(#mask-2)"></path>
            <path d="M20.2939,2.7055 C20.0989,2.5115 19.7819,2.5115 19.5869,2.7055 L15.7069,6.5865 C15.5119,6.7805 15.5119,7.0985 15.7069,7.2935 C15.8049,7.3905 15.9329,7.4385 16.0609,7.4385 C16.1879,7.4385 16.3159,7.3915 16.4139,7.2935 L20.2939,3.4125 C20.4889,3.2185 20.4889,2.9005 20.2939,2.7055" id="Fill-12" fill="#BFC5D2" mask="url(#mask-2)"></path>
            <path d="M13.791,6.8462 L10.579,5.9302 C10.31,5.8522 10.037,6.0082 9.962,6.2742 C9.886,6.5402 10.04,6.8162 10.305,6.8922 L13.517,7.8082 C13.563,7.8212 13.609,7.8262 13.654,7.8262 C13.872,7.8262 14.072,7.6842 14.135,7.4642 C14.211,7.1992 14.057,6.9222 13.791,6.8462" id="Fill-13" fill="#BFC5D2" mask="url(#mask-2)"></path>
            <path d="M8.2202,6.6225 C8.0482,6.4065 7.7342,6.3715 7.5182,6.5435 L3.7482,9.5495 C3.5322,9.7225 3.4962,10.0355 3.6692,10.2525 C3.7682,10.3765 3.9142,10.4395 4.0602,10.4395 C4.1692,10.4395 4.2792,10.4035 4.3712,10.3315 L8.1412,7.3255 C8.3572,7.1525 8.3932,6.8395 8.2202,6.6225" id="Fill-14" fill="#BFC5D2" mask="url(#mask-2)"></path>
        </g>
    </g>
</svg>