<?xml version="1.0" encoding="UTF-8"?>
<svg width="24px" height="18px" viewBox="0 0 24 18" version="1.1" xmlns="http://www.w3.org/2000/svg" xmlns:xlink="http://www.w3.org/1999/xlink">
    <!-- Generator: Sketch 61 (89581) - https://sketch.com -->
    <title>Slice 1</title>
    <desc>Created with Sketch.</desc>
    <defs>
        <polygon id="path-1" points="-0.0007 -0.004 20.0033 -0.004 20.0033 6.9974 -0.0007 6.9974"></polygon>
    </defs>
    <g id="Page-1" stroke="none" stroke-width="1" fill="none" fill-rule="evenodd">
        <g id="Group-6">
            <path d="M22.9828,6.7282 L21.4668,16.5802 C21.4288,16.8252 21.2208,17.0032 20.9718,17.0032 L2.9398,17.0032 C2.6978,17.0032 2.4908,16.8312 2.4468,16.5932 L1.0248,8.7702 C0.9448,8.3312 1.0628,7.8822 1.3488,7.5402 C1.6348,7.1982 2.0548,7.0012 2.5018,7.0012 L7.7928,7.0012 C8.3328,7.0012 8.8748,6.8742 9.3578,6.6322 L12.0908,5.2652 C12.4378,5.0922 12.8238,5.0002 13.2098,5.0002 L21.4998,5.0002 C21.9378,5.0002 22.3528,5.1912 22.6388,5.5242 C22.9238,5.8572 23.0488,6.2952 22.9828,6.7282 M23.3968,4.8732 C22.9218,4.3192 22.2298,4.0002 21.4998,4.0002 L13.2098,4.0002 C12.6698,4.0002 12.1288,4.1282 11.6438,4.3702 L8.9108,5.7372 C8.5658,5.9112 8.1788,6.0012 7.7928,6.0012 L2.5018,6.0012 C1.7568,6.0012 1.0578,6.3292 0.5808,6.9012 C0.1048,7.4702 -0.0922,8.2192 0.0408,8.9502 L1.4628,16.7732 C1.5928,17.4852 2.2128,18.0042 2.9398,18.0042 L20.9718,18.0042 C21.7188,18.0042 22.3418,17.4692 22.4548,16.7332 L23.9698,6.8812 C24.0818,6.1602 23.8728,5.4282 23.3968,4.8732" id="Fill-1" fill="#BFC5D2"></path>
            <g id="Group-5" transform="translate(2.000000, 0.004300)">
                <mask id="mask-2" fill="white">
                    <use xlink:href="#path-1"></use>
                </mask>
                <g id="Clip-4"></g>
                <path d="M18.5033,1.9964 L10.1583,1.9964 C9.7643,1.9964 9.3773,1.8364 9.0983,1.5564 L8.2693,0.7274 C7.7953,0.2564 7.1683,-0.0046 6.5003,-0.0046 L2.4993,-0.0046 C1.1213,-0.0046 -0.0007,1.1164 -0.0007,2.4964 L-0.0007,6.4974 C-0.0007,6.7734 0.2233,6.9974 0.4993,6.9974 C0.7763,6.9974 0.9993,6.7734 0.9993,6.4974 L0.9993,2.4964 C0.9993,1.6694 1.6723,0.9964 2.4993,0.9964 L6.5003,0.9964 C6.8953,0.9964 7.2823,1.1554 7.5623,1.4344 L8.3903,2.2644 C8.8633,2.7364 9.4913,2.9964 10.1583,2.9964 L18.5033,2.9964 C18.7793,2.9964 19.0033,3.2214 19.0033,3.4964 L19.0033,4.4964 C19.0033,4.7724 19.2273,4.9964 19.5033,4.9964 C19.7793,4.9964 20.0033,4.7724 20.0033,4.4964 L20.0033,3.4964 C20.0033,2.6694 19.3303,1.9964 18.5033,1.9964" id="Fill-3" fill="#BFC5D2" mask="url(#mask-2)"></path>
            </g>
        </g>
    </g>
</svg>