<?xml version="1.0" encoding="UTF-8"?>
<svg width="24px" height="17px" viewBox="0 0 24 17" version="1.1" xmlns="http://www.w3.org/2000/svg" xmlns:xlink="http://www.w3.org/1999/xlink">
    <!-- Generator: Sketch 61 (89581) - https://sketch.com -->
    <title>Untitled 2</title>
    <desc>Created with Sketch.</desc>
    <defs>
        <polygon id="path-1" points="0.22864321 0 7.29775145 0 7.29775145 12.2529 0.22864321 12.2529"></polygon>
    </defs>
    <g id="Page-1" stroke="none" stroke-width="1" fill="none" fill-rule="evenodd">
        <g id="Group-12">
            <path d="M7,16.0001 L4,16.0001 C2.346,16.0001 1,14.6541 1,13.0001 C1,11.3461 2.346,10.0001 4,10.0001 L7,10.0001 C8.654,10.0001 10,11.3461 10,13.0001 C10,14.6541 8.654,16.0001 7,16.0001 M7,9.0001 L4,9.0001 C1.794,9.0001 0,10.7941 0,13.0001 C0,15.2061 1.794,17.0001 4,17.0001 L7,17.0001 C9.206,17.0001 11,15.2061 11,13.0001 C11,10.7941 9.206,9.0001 7,9.0001" id="Fill-1" fill="#BFC5D2"></path>
            <path d="M20,16.0001 L17,16.0001 C15.346,16.0001 14,14.6541 14,13.0001 C14,11.3461 15.346,10.0001 17,10.0001 L20,10.0001 C21.654,10.0001 23,11.3461 23,13.0001 C23,14.6541 21.654,16.0001 20,16.0001 M20,9.0001 L17,9.0001 C14.794,9.0001 13,10.7941 13,13.0001 C13,15.2061 14.794,17.0001 17,17.0001 L20,17.0001 C22.206,17.0001 24,15.2061 24,13.0001 C24,10.7941 22.206,9.0001 20,9.0001" id="Fill-3" fill="#BFC5D2"></path>
            <path d="M13.8022,12.5998 C12.7572,11.8158 11.2452,11.8158 10.2002,12.5998 C9.9792,12.7658 9.9352,13.0788 10.1012,13.2998 C10.2672,13.5228 10.5822,13.5668 10.8012,13.3998 C11.4962,12.8758 12.5042,12.8758 13.1982,13.3998 C13.2892,13.4678 13.3952,13.4998 13.5002,13.4998 C13.6512,13.4998 13.8022,13.4318 13.9012,13.2998 C14.0672,13.0788 14.0232,12.7658 13.8022,12.5998" id="Fill-5" fill="#BFC5D2"></path>
            <g id="Group-9" transform="translate(0.000000, 0.000100)">
                <mask id="mask-2" fill="white">
                    <use xlink:href="#path-1"></use>
                </mask>
                <g id="Clip-8"></g>
                <path d="M7.0751,0.3379 C6.5791,0.0079 5.9671,-0.0871 5.3961,0.0819 C4.8231,0.2499 4.3581,0.6599 4.1101,1.2329 L0.2601,11.5779 C0.1641,11.8369 0.2951,12.1249 0.5541,12.2219 C0.6121,12.2429 0.6711,12.2529 0.7291,12.2529 C0.9321,12.2529 1.1221,12.1289 1.1971,11.9279 L5.0361,1.6069 C5.1561,1.3319 5.3901,1.1259 5.6771,1.0409 C5.9621,0.9579 6.2701,1.0029 6.5201,1.1699 C6.7481,1.3219 7.0591,1.2619 7.2141,1.0309 C7.3671,0.8019 7.3041,0.4909 7.0751,0.3379" id="Fill-7" fill="#BFC5D2" mask="url(#mask-2)"></path>
            </g>
            <path d="M23.7368,11.5792 L19.8798,1.2082 C19.6418,0.6602 19.1768,0.2502 18.6048,0.0822 C18.0328,-0.0858 17.4208,0.0082 16.9258,0.3382 C16.6958,0.4912 16.6338,0.8022 16.7868,1.0312 C16.9408,1.2612 17.2508,1.3212 17.4798,1.1702 C17.7298,1.0032 18.0368,0.9582 18.3228,1.0412 C18.6098,1.1262 18.8438,1.3322 18.9528,1.5812 L22.7998,11.9272 C22.8748,12.1292 23.0658,12.2532 23.2688,12.2532 C23.3258,12.2532 23.3858,12.2432 23.4418,12.2222 C23.7008,12.1252 23.8328,11.8382 23.7368,11.5792" id="Fill-10" fill="#BFC5D2"></path>
        </g>
    </g>
</svg>