<?xml version="1.0" encoding="UTF-8"?>
<svg width="24px" height="24px" viewBox="0 0 24 24" version="1.1" xmlns="http://www.w3.org/2000/svg" xmlns:xlink="http://www.w3.org/1999/xlink">
    <!-- Generator: Sketch 61 (89581) - https://sketch.com -->
    <title>Untitled 3</title>
    <desc>Created with Sketch.</desc>
    <defs>
        <polygon id="path-1" points="0.0005 0 23.9999659 0 23.9999659 24 0.0005 24"></polygon>
    </defs>
    <g id="Page-1" stroke="none" stroke-width="1" fill="none" fill-rule="evenodd">
        <g id="Group-12">
            <g id="Group-3" transform="translate(0.000000, 0.000200)">
                <mask id="mask-2" fill="white">
                    <use xlink:href="#path-1"></use>
                </mask>
                <g id="Clip-2"></g>
                <path d="M21.7125,15.0911 C19.7315,16.4801 17.6525,15.9621 15.6425,15.4561 C14.7045,15.2221 13.8195,15.0001 12.9995,15.0001 C11.8965,15.0001 10.9995,15.8971 10.9995,17.0001 C10.9995,17.0871 11.0045,17.1721 11.0245,17.2901 L11.0235,17.2901 C11.1185,18.4341 11.5415,19.0021 12.0755,19.7201 C12.2605,19.9691 12.4685,20.2481 12.6965,20.5951 C12.7065,20.6101 12.7165,20.6241 12.7275,20.6371 C12.9055,20.8911 12.9995,21.1881 12.9995,21.5001 C12.9995,22.2821 12.3975,22.9261 11.6335,22.9941 C5.6645,22.8001 1.0005,17.9841 1.0005,12.0001 C1.0005,8.9831 2.1965,6.1681 4.3705,4.0751 C6.4405,2.0831 9.1325,1.0001 11.9955,1.0001 C12.1395,1.0001 12.2835,1.0031 12.4295,1.0091 C18.1995,1.2291 22.9415,6.1091 22.9995,11.8871 C23.0075,12.6861 23.0225,14.1711 21.7125,15.0911 M23.9985,11.8761 C23.9355,5.5711 18.7625,0.2471 12.4665,0.0081 C9.1575,-0.1149 6.0485,1.0721 3.6775,3.3551 C1.3065,5.6381 0.0005,8.7081 0.0005,12.0001 C0.0005,18.4531 4.9705,23.6581 11.3745,23.9841 C11.4145,23.9941 11.4565,24.0001 11.4995,24.0001 C11.5515,24.0001 11.6035,23.9981 11.6545,23.9961 C11.6635,23.9961 11.6715,23.9971 11.6805,23.9971 C11.7255,23.9971 11.7785,23.9911 11.8245,23.9791 C13.0505,23.8191 13.9995,22.7691 13.9995,21.5001 C13.9995,20.9681 13.8335,20.4591 13.5205,20.0281 C13.5185,20.0251 13.5155,20.0211 13.5125,20.0181 C13.2795,19.6651 13.0665,19.3781 12.8765,19.1231 C12.3695,18.4411 12.0905,18.0661 12.0125,17.1641 C12.0045,17.1101 11.9995,17.0561 11.9995,17.0001 C11.9995,16.4481 12.4485,16.0001 12.9995,16.0001 C13.6955,16.0001 14.5225,16.2071 15.3985,16.4261 C17.4195,16.9301 19.9325,17.5611 22.2865,15.9081 C24.0275,14.6861 24.0075,12.7881 23.9985,11.8761" id="Fill-1" fill="#BFC5D2" mask="url(#mask-2)"></path>
            </g>
            <path d="M18.4996,12.0005 C17.6726,12.0005 16.9996,11.3275 16.9996,10.5005 C16.9996,9.6735 17.6716,9.0005 18.4996,9.0005 C19.3266,9.0005 19.9996,9.6735 19.9996,10.5005 C19.9996,11.3275 19.3266,12.0005 18.4996,12.0005 M18.4996,8.0005 C17.1206,8.0005 15.9996,9.1215 15.9996,10.5005 C15.9996,11.8795 17.1216,13.0005 18.4996,13.0005 C19.8776,13.0005 20.9996,11.8795 20.9996,10.5005 C20.9996,9.1215 19.8786,8.0005 18.4996,8.0005" id="Fill-4" fill="#BFC5D2"></path>
            <path d="M13.4996,7.0005 C12.6716,7.0005 11.9996,6.3275 11.9996,5.5005 C11.9996,4.6735 12.6716,4.0005 13.4996,4.0005 C14.3266,4.0005 14.9996,4.6735 14.9996,5.5005 C14.9996,6.3275 14.3276,7.0005 13.4996,7.0005 M13.4996,3.0005 C12.1206,3.0005 10.9996,4.1215 10.9996,5.5005 C10.9996,6.8795 12.1206,8.0005 13.4996,8.0005 C14.8776,8.0005 15.9996,6.8795 15.9996,5.5005 C15.9996,4.1215 14.8786,3.0005 13.4996,3.0005" id="Fill-6" fill="#BFC5D2"></path>
            <path d="M6.4996,9.0005 C5.6716,9.0005 4.9996,8.3275 4.9996,7.5005 C4.9996,6.6735 5.6716,6.0005 6.4996,6.0005 C7.3266,6.0005 7.9996,6.6735 7.9996,7.5005 C7.9996,8.3275 7.3276,9.0005 6.4996,9.0005 M6.4996,5.0005 C5.1206,5.0005 3.9996,6.1215 3.9996,7.5005 C3.9996,8.8795 5.1206,10.0005 6.4996,10.0005 C7.8776,10.0005 8.9996,8.8795 8.9996,7.5005 C8.9996,6.1215 7.8786,5.0005 6.4996,5.0005" id="Fill-8" fill="#BFC5D2"></path>
            <path d="M5.5001,16.0005 C4.6721,16.0005 4.0001,15.3275 4.0001,14.5005 C4.0001,13.6735 4.6721,13.0005 5.5001,13.0005 C6.3271,13.0005 7.0001,13.6735 7.0001,14.5005 C7.0001,15.3275 6.3281,16.0005 5.5001,16.0005 M5.5001,12.0005 C4.1211,12.0005 3.0001,13.1215 3.0001,14.5005 C3.0001,15.8795 4.1211,17.0005 5.5001,17.0005 C6.8781,17.0005 8.0001,15.8795 8.0001,14.5005 C8.0001,13.1215 6.8791,12.0005 5.5001,12.0005" id="Fill-10" fill="#BFC5D2"></path>
        </g>
    </g>
</svg>