<?xml version="1.0" encoding="UTF-8"?>
<svg width="24px" height="29px" viewBox="0 0 24 29" version="1.1" xmlns="http://www.w3.org/2000/svg" xmlns:xlink="http://www.w3.org/1999/xlink">
    <!-- Generator: Sketch 61 (89581) - https://sketch.com -->
    <title>Untitled</title>
    <desc>Created with Sketch.</desc>
    <defs>
        <polygon id="path-1" points="7.2718547e-05 0.4012 24 0.4012 24 21.4002 7.2718547e-05 21.4002"></polygon>
        <polygon id="path-3" points="0 0.200914776 6.002 0.200914776 6.002 5 0 5"></polygon>
    </defs>
    <g id="Page-1" stroke="none" stroke-width="1" fill="none" fill-rule="evenodd">
        <g id="Group-9">
            <g id="Group-3" transform="translate(0.000000, 3.798800)">
                <mask id="mask-2" fill="white">
                    <use xlink:href="#path-1"></use>
                </mask>
                <g id="Clip-2"></g>
                <path d="M1.66,20.2002 L3.176,17.6742 C4.239,15.9032 4.8,13.8752 4.8,11.8082 L4.8,8.8012 C4.8,4.8302 8.03,1.6002 12,1.6002 C15.971,1.6002 19.2,4.8302 19.2,8.8012 L19.2,11.8082 C19.2,13.8752 19.762,15.9032 20.824,17.6742 L22.34,20.2002 L1.66,20.2002 Z M23.914,20.4922 L21.853,17.0572 C20.903,15.4722 20.4,13.6582 20.4,11.8082 L20.4,8.8012 C20.4,4.1702 16.631,0.4012 12,0.4012 C7.369,0.4012 3.6,4.1702 3.6,8.8012 L3.6,11.8082 C3.6,13.6582 3.097,15.4722 2.147,17.0572 L0.086,20.4922 C-0.026,20.6772 -0.028,20.9082 0.077,21.0962 C0.184,21.2842 0.385,21.4002 0.6,21.4002 L23.4,21.4002 C23.616,21.4002 23.816,21.2842 23.923,21.0962 C24.029,20.9082 24.026,20.6772 23.914,20.4922 L23.914,20.4922 Z" id="Fill-1" fill="#BFC5D2" mask="url(#mask-2)"></path>
            </g>
            <path d="M12.0004,0 C10.6764,0 9.6004,1.076 9.6004,2.4 L9.6004,4.8 C9.6004,5.131 9.8694,5.399 10.2004,5.399 C10.5314,5.399 10.8004,5.131 10.8004,4.8 L10.8004,2.4 C10.8004,1.737 11.3374,1.2 12.0004,1.2 C12.6624,1.2 13.2004,1.737 13.2004,2.4 L13.2004,4.8 C13.2004,5.131 13.4694,5.399 13.8004,5.399 C14.1314,5.399 14.4004,5.131 14.4004,4.8 L14.4004,2.4 C14.4004,1.076 13.3234,0 12.0004,0" id="Fill-4" fill="#BFC5D2"></path>
            <g id="Group-8" transform="translate(9.000000, 23.798800)">
                <mask id="mask-4" fill="white">
                    <use xlink:href="#path-3"></use>
                </mask>
                <g id="Clip-7"></g>
                <path d="M5.597,0.4961 C5.428,0.2111 5.061,0.1171 4.775,0.2821 C4.488,0.4501 4.392,0.8181 4.56,1.1031 C4.716,1.3691 4.801,1.6861 4.801,2.0001 C4.801,2.9921 3.993,3.8001 3.001,3.8001 C2.009,3.8001 1.201,2.9921 1.201,2.0001 C1.201,1.6861 1.286,1.3691 1.443,1.1031 C1.609,0.8171 1.514,0.4501 1.228,0.2821 C0.938,0.1171 0.574,0.2111 0.406,0.4961 C0.14,0.9501 0,1.4701 0,2.0001 C0,3.6551 1.346,5.0001 3,5.0001 C4.655,5.0001 6,3.6551 6.002,2.0001 C6.002,1.4701 5.862,0.9501 5.597,0.4961" id="Fill-6" fill="#BFC5D2" mask="url(#mask-4)"></path>
            </g>
        </g>
    </g>
</svg>