<?xml version="1.0" encoding="UTF-8"?>
<svg width="24px" height="27px" viewBox="0 0 24 27" version="1.1" xmlns="http://www.w3.org/2000/svg" xmlns:xlink="http://www.w3.org/1999/xlink">
    <!-- Generator: Sketch 61 (89581) - https://sketch.com -->
    <title>Untitled 3</title>
    <desc>Created with Sketch.</desc>
    <defs>
        <polygon id="path-1" points="0 0.957 23.9996 0.957 23.9996 5.1304 0 5.1304"></polygon>
        <polygon id="path-3" points="0 26.0435 24 26.0435 24 1.0005 0 1.0005"></polygon>
    </defs>
    <g id="Page-1" stroke="none" stroke-width="1" fill="none" fill-rule="evenodd">
        <g id="Group-8">
            <g id="Group-3" transform="translate(0.000000, 0.043500)">
                <mask id="mask-2" fill="white">
                    <use xlink:href="#path-1"></use>
                </mask>
                <g id="Clip-2"></g>
                <path d="M21.9126,4.0874 L2.0866,4.0874 C1.5116,4.0874 1.0436,3.6194 1.0436,3.0434 C1.0436,2.4674 1.5116,2.0004 2.0866,2.0004 L21.9126,2.0004 C22.4876,2.0004 22.9556,2.4674 22.9556,3.0434 C22.9556,3.6194 22.4876,4.0874 21.9126,4.0874 M21.9126,0.9564 L2.0866,0.9564 C0.9356,0.9564 -0.0004,1.8924 -0.0004,3.0434 C-0.0004,4.1944 0.9356,5.1304 2.0866,5.1304 L21.9126,5.1304 C23.0636,5.1304 23.9996,4.1944 23.9996,3.0434 C23.9996,1.8924 23.0636,0.9564 21.9126,0.9564" id="Fill-1" fill="#BFC5D2" mask="url(#mask-2)"></path>
            </g>
            <mask id="mask-4" fill="white">
                <use xlink:href="#path-3"></use>
            </mask>
            <g id="Clip-5"></g>
            <path d="M3.13,19.7825 L20.869,19.7825 L20.869,5.1745 L3.13,5.1745 L3.13,19.7825 Z M21.391,4.1305 L2.608,4.1305 C2.321,4.1305 2.087,4.3645 2.087,4.6525 L2.087,20.3045 C2.087,20.5925 2.321,20.8265 2.608,20.8265 L21.391,20.8265 C21.679,20.8265 21.913,20.5925 21.913,20.3045 L21.913,4.6525 C21.913,4.3645 21.679,4.1305 21.391,4.1305 L21.391,4.1305 Z" id="Fill-4" fill="#BFC5D2" mask="url(#mask-4)"></path>
            <path d="M11.9996,25.0001 C11.7116,25.0001 11.4786,24.7661 11.4786,24.4791 C11.4786,24.1911 11.7116,23.9561 11.9996,23.9561 C12.2876,23.9561 12.5216,24.1911 12.5216,24.4791 C12.5216,24.7661 12.2876,25.0001 11.9996,25.0001 M11.9996,22.9131 C11.1366,22.9131 10.4346,23.6151 10.4346,24.4791 C10.4346,25.3411 11.1366,26.0431 11.9996,26.0431 C12.8626,26.0431 13.5646,25.3411 13.5646,24.4791 C13.5646,23.6151 12.8626,22.9131 11.9996,22.9131" id="Fill-6" fill="#BFC5D2" mask="url(#mask-4)"></path>
            <path d="M11.9996,19.7823 C11.7116,19.7823 11.4786,20.0163 11.4786,20.3043 L11.4786,23.4343 C11.4786,23.7223 11.7116,23.9563 11.9996,23.9563 C12.2876,23.9563 12.5216,23.7223 12.5216,23.4343 L12.5216,20.3043 C12.5216,20.0163 12.2876,19.7823 11.9996,19.7823" id="Fill-7" fill="#BFC5D2" mask="url(#mask-4)"></path>
        </g>
    </g>
</svg>