<?xml version="1.0" encoding="UTF-8"?>
<svg width="24px" height="24px" viewBox="0 0 24 24" version="1.1" xmlns="http://www.w3.org/2000/svg" xmlns:xlink="http://www.w3.org/1999/xlink">
    <!-- Generator: Sketch 61 (89581) - https://sketch.com -->
    <title>Untitled</title>
    <desc>Created with Sketch.</desc>
    <defs>
        <polygon id="path-1" points="0 0.0004 24 0.0004 24 20 0 20"></polygon>
        <polygon id="path-3" points="0.000192157417 0.0008 24 0.0008 24 5.0008 0.000192157417 5.0008"></polygon>
        <polygon id="path-5" points="0 23.9996 24 23.9996 24 -0.0004 0 -0.0004"></polygon>
    </defs>
    <g id="Page-1" stroke="none" stroke-width="1" fill="none" fill-rule="evenodd">
        <g id="Group-9">
            <g id="Group-3" transform="translate(0.000000, 3.999600)">
                <mask id="mask-2" fill="white">
                    <use xlink:href="#path-1"></use>
                </mask>
                <g id="Clip-2"></g>
                <path d="M23,17.5004 C23,18.3264 22.327,19.0004 21.5,19.0004 L2.5,19.0004 C1.673,19.0004 1,18.3264 1,17.5004 L1,1.0004 L23,1.0004 L23,17.5004 Z M23.5,0.0004 L0.5,0.0004 C0.224,0.0004 0,0.2244 0,0.5004 L0,17.5004 C0,18.8784 1.122,20.0004 2.5,20.0004 L21.5,20.0004 C22.878,20.0004 24,18.8784 24,17.5004 L24,0.5004 C24,0.2244 23.776,0.0004 23.5,0.0004 L23.5,0.0004 Z" id="Fill-1" fill="#BFC5D2" mask="url(#mask-2)"></path>
            </g>
            <g id="Group-6" transform="translate(0.000000, -0.000400)">
                <mask id="mask-4" fill="white">
                    <use xlink:href="#path-3"></use>
                </mask>
                <g id="Clip-5"></g>
                <path d="M23.8134,4.1098 L18.8134,0.1098 C18.7244,0.0398 18.6144,0.0008 18.5004,0.0008 L5.5004,0.0008 C5.3864,0.0008 5.2764,0.0398 5.1874,0.1108 L0.1874,4.1108 C-0.0276,4.2838 -0.0626,4.5968 0.1094,4.8128 C0.2824,5.0268 0.5964,5.0628 0.8134,4.8908 L5.6754,1.0008 L18.3254,1.0008 L23.1884,4.8908 C23.2804,4.9638 23.3914,5.0008 23.5004,5.0008 C23.6464,5.0008 23.7924,4.9358 23.8914,4.8118 C24.0634,4.5958 24.0284,4.2828 23.8134,4.1098" id="Fill-4" fill="#BFC5D2" mask="url(#mask-4)"></path>
            </g>
            <mask id="mask-6" fill="white">
                <use xlink:href="#path-5"></use>
            </mask>
            <g id="Clip-8"></g>
            <path d="M9,10.9996 L15,10.9996 L15,8.9996 L9,8.9996 L9,10.9996 Z M15.5,7.9996 L8.5,7.9996 C8.224,7.9996 8,8.2236 8,8.4996 L8,11.4996 C8,11.7756 8.224,11.9996 8.5,11.9996 L15.5,11.9996 C15.776,11.9996 16,11.7756 16,11.4996 L16,8.4996 C16,8.2236 15.776,7.9996 15.5,7.9996 L15.5,7.9996 Z" id="Fill-7" fill="#BFC5D2" mask="url(#mask-6)"></path>
        </g>
    </g>
</svg>